# xmcd CD database file
#
# Track frame offsets:
#	150
#	23512
#	61687
#	87075
#	115125
#	133275
#	155587
#	196387
#	214350
#	235837
#	258712
#
# Disc length: 3601 seconds
#
# Revision: 2
# Processed by: cddbd v1.4PL0 Copyright (c) Steve Scherf et al.
# Submitted via: CDex 1.50
#
DISCID=970e0f0b
DTITLE=Ronnie Earl - Language of the Soul
DYEAR=1994
DGENRE=Blues
TTITLE0=Eddie's Gospel Groove
TTITLE1=Beautiful Child
TTITLE2=Indigo Burrell
TTITLE3=Blues For Martin Luther King
TTITLE4=Harvard Square Stomp
TTITLE5=Barcelona Morning
TTITLE6=I Am With You
TTITLE7=Green Light
TTITLE8=Through Floods and Storms
TTITLE9=Blue Guitar
TTITLE10=Bill's Blues
EXTD=Bullseye Blues CD BB 9554\n\nRonnie Earl and the Broadcasters\nLanguage of the Soul\n(c) 1994 Rounder Records, Corp.\n\nProduced by Ronnie Earl\n YEAR: 1994
EXTT0=
EXTT1=
EXTT2=
EXTT3=
EXTT4=
EXTT5=
EXTT6=
EXTT7=
EXTT8=
EXTT9=
EXTT10=
PLAYORDER=
